:SAMPLES-PER-SECOND 30
:FRAME-RANGE 1-2091
:FULLY-SPECIFIED
:DEGREES
785
root  -29.3605 37.88 -4.49274 -5.56293 9.80151 4.21065
RightUpLeg  -13.2625 5.06455 -10.216
RightLeg  73.9078 -0.567506 -3.29082
RightFoot  5.16651 -1.73822 12.1859
RightToes  5.82063e-011 0 -3.6325e-017
Spine  8.26412 2.0828 -2.73614
Spine1  0.100905 1.59186 -4.82941
HEad  8.51794 50.3603 -7.95676
LeftShoulder1  1.20651 0.222411 -30.7035
LeftArm  35.1159 -4.00247 -27.4533
LeftForeArm  22.1519 -7.77595 -16.6612
LeftHand  -0.121529 -1.26981 2.25084
RightShoulder  10.4819 14.6562 50.5241
RightArm  -1.29235 3.96376 12.9359
RightForeArm  36.9006 -6.46416 15.6483
RightHand  0.366399 3.00111 4.84233
LeftUpLeg  -12.384 10.5105 -12.9021
LeftLeg  25.3668 16.3157 6.35217
LeftFoot  -9.62839 -0.0658958 8.27514
LeftToes  -6.27584e-011 -2.25241e-010 2.80627e-011
786
root  -28.671 38.1718 -3.00603 -5.25786 13.0931 3.24904
RightUpLeg  -18.1985 4.88592 -9.09905
RightLeg  72.7329 -1.44561 -6.21221
RightFoot  4.85346 -1.15211 8.3182
RightToes  5.82063e-011 0 -3.6325e-017
Spine  7.60186 1.84148 -2.26361
Spine1  0.189762 1.2568 -3.31546
HEad  9.77592 48.6962 -7.28644
LeftShoulder1  1.05938 0.565413 -29.9753
LeftArm  46.1694 4.10625 -24.3806
LeftForeArm  20.3593 -12.6478 -14.0734
LeftHand  -0.160713 -1.45341 2.87443
RightShoulder  7.75487 10.397 48.8683
RightArm  -0.761158 0.573645 10.9042
RightForeArm  35.536 -6.43248 15.758
RightHand  0.254133 2.71072 3.4324
LeftUpLeg  -8.54295 7.08055 -12.1827
LeftLeg  23.1567 16.8535 4.85579
LeftFoot  -11.1961 0.0571967 8.08386
LeftToes  -6.27584e-011 -2.25241e-010 2.80627e-011
787
root  -28.0012 38.4076 -1.52521 -5.13524 17.2744 2.22005
RightUpLeg  -21.7878 3.90805 -8.17399
RightLeg  68.2473 -2.54911 -7.75092
RightFoot  2.84377 -1.0981 8.96477
RightToes  5.82063e-011 0 -3.6325e-017
Spine  7.33764 1.42794 -2.34271
Spine1  -0.450347 0.632375 -1.26294
HEad  11.135 45.9574 -5.91849
LeftShoulder1  0.905053 0.87433 -28.3062
LeftArm  57.7721 10.5181 -20.8634
LeftForeArm  16.7974 -17.1338 -10.4613
LeftHand  -0.221038 -1.6768 3.79729
RightShoulder  5.04995 5.86943 47.2031
RightArm  4.85376 -3.36965 9.06942
RightForeArm  29.1599 -5.5599 16.7225
RightHand  0.214338 2.45699 2.97602
LeftUpLeg  -4.61322 5.45158 -11.4574
LeftLeg  20.8213 14.5279 2.95474
LeftFoot  -12.5761 0.165164 8.28172
LeftToes  -6.27584e-011 -2.25241e-010 2.80627e-011
788
root  -27.3138 38.5823 -0.0796505 -5.21584 21.8942 1.067
RightUpLeg  -24.0911 2.55799 -7.26292
RightLeg  60.7589 -3.54614 -7.33099
RightFoot  1.81329 -0.940485 8.25047
RightToes  5.82063e-011 0 -3.6325e-017
Spine  6.89117 0.831694 -2.3153
Spine1  -0.76924 -0.130847 0.955811
HEad  11.6527 43.1501 -5.26578
LeftShoulder1  0.789692 1.04143 -25.881
LeftArm  65.5774 14.4631 -17.7893
LeftForeArm  16.3803 -19.2834 -8.20635
LeftHand  -0.311656 -1.36515 5.50933
RightShoulder  2.7003 1.71298 45.373
RightArm  10.8718 -7.07891 7.74938
RightForeArm  23.8089 -4.49696 17.5141
RightHand  0.214456 2.51273 2.95209
LeftUpLeg  -0.586168 4.85998 -10.5463
LeftLeg  18.2677 11.0115 1.39595
LeftFoot  -13.8051 0.274673 8.88635
LeftToes  -6.27584e-011 -2.25241e-010 2.80627e-011
789
root  -26.627 38.7153 1.29646 -5.30322 26.1652 -0.11261
RightUpLeg  -25.1852 1.64604 -6.49652
RightLeg  50.1194 -5.01249 -6.74041
RightFoot  1.44457 -1.01359 9.11635
RightToes  5.82063e-011 0 -3.6325e-017
Spine  6.28396 0.248911 -2.11251
Spine1  -0.711178 -0.816616 2.95439
HEad  11.516 40.4236 -5.23392
LeftShoulder1  0.721143 1.08323 -23.4994
LeftArm  68.4543 16.377 -15.1213
LeftForeArm  13.3737 -20.9554 -6.39445
LeftHand  -0.234009 -2.39663 3.69417
RightShoulder  0.876542 -1.72821 43.6399
RightArm  15.6553 -10.2458 6.96444
RightForeArm  21.3732 -3.60709 17.9497
RightHand  0.191657 2.58632 2.58682
LeftUpLeg  3.10426 4.7195 -9.35369
LeftLeg  15.9379 6.79442 0.292891
LeftFoot  -14.8399 0.368232 9.10918
LeftToes  -6.27584e-011 -2.25241e-010 2.80627e-011
